<svg xmlns="http://www.w3.org/2000/svg" viewBox="0 0 500 500">
  <circle cx="250" cy="250" r="240" fill="#F5B90F" stroke="#0A0A0A" stroke-width="12"/>
  <circle cx="250" cy="250" r="222" fill="none" stroke="#0A0A0A" stroke-width="4"/>
  <!-- VB Bee Monogram -->
  <g transform="translate(250, 240) scale(1.15)">
    <!-- Antennae -->
    <path d="M -22 -65 C -28 -82 -40 -92 -52 -96" fill="none" stroke="#0A0A0A" stroke-width="7" stroke-linecap="round"/>
    <circle cx="-53" cy="-97" r="8" fill="#0A0A0A"/>
    <path d="M -10 -68 C -6 -84 6 -95 18 -98" fill="none" stroke="#0A0A0A" stroke-width="7" stroke-linecap="round"/>
    <circle cx="19" cy="-99" r="8" fill="#0A0A0A"/>
    <!-- Wing -->
    <path d="M 46 -35 C 75 -65 130 -45 138 -20 C 142 5 95 10 50 -10 Z" fill="#FFFFFF"/>
    <path d="M 44 -2 C 70 -5 105 12 108 26 C 110 40 75 42 46 16 Z" fill="#FFFFFF"/>
    <!-- V & B shape -->
    <path d="M -132 -60 L -72 58 L -36 58 L -94 -60 Z" fill="#0A0A0A"/>
    <path d="M -30 -60 L 32 -60 C 58 -60 76 -46 76 -24 C 76 -4 56 6 30 6 L -30 6 Z M -3 -38 L 26 -38 C 38 -38 46 -43 46 -26 C 46 -10 36 -6 24 -6 L -3 -6 Z" fill="#0A0A0A"/>
    <path d="M -30 -6 L 36 -6 C 66 -6 86 10 86 35 C 86 58 64 74 32 74 L -30 74 Z M -3 14 L 28 14 C 42 14 54 20 54 36 C 54 52 40 54 26 54 L -3 54 Z" fill="#0A0A0A"/>
    <path d="M -72 58 L -40 -6 L -20 -6 L -36 58 Z" fill="#0A0A0A"/>
  </g>
</svg>